<svg viewBox="0 0 100 100" xml:space="preserve" xmlns="http://www.w3.org/2000/svg"><path d="M49.15 95.868c25.353 0 45.978-20.625 45.978-45.978S74.503 3.913 49.15 3.913 3.173 24.539 3.173 49.891 23.798 95.868 49.15 95.868zm0-89.955c24.249 0 43.978 19.728 43.978 43.978S73.399 93.868 49.15 93.868 5.173 74.14 5.173 49.891 24.901 5.913 49.15 5.913z" fill="#ffffff" class="fill-000000"></path><path d="M26.237 64.711a27.147 27.147 0 0 0 14.686 4.307c9.728 0 15.99-4.415 19.53-8.118 5.027-5.258 7.889-12.639 7.716-19.842a19.58 19.58 0 0 0 4.418-4.713.999.999 0 0 0-1.237-1.469c-.467.207-.942.394-1.425.559a10.223 10.223 0 0 0 1.541-2.992.999.999 0 0 0-1.462-1.166 17.49 17.49 0 0 1-5.026 2.009 10.281 10.281 0 0 0-7.06-2.823 10.17 10.17 0 0 0-8.007 3.868 10.184 10.184 0 0 0-2.176 7.372 25.297 25.297 0 0 1-17.052-9.182 1 1 0 0 0-1.64.129c-2.061 3.536-1.756 7.845.475 11.027a9.042 9.042 0 0 1-.449-.231.999.999 0 0 0-1.485.85c-.079 3.32 1.56 6.421 4.145 8.35a.998.998 0 0 0-.863 1.301 10.23 10.23 0 0 0 6.907 6.706 17.556 17.556 0 0 1-10.878 2.225c-.451-.05-.901.217-1.059.656s.01.925.401 1.177zm14.819-3.875c.334-.261.467-.703.332-1.104s-.507-.675-.93-.683a8.232 8.232 0 0 1-7.054-4.244 10.06 10.06 0 0 0 2.845-.359 1 1 0 0 0-.068-1.946c-3.325-.667-5.893-3.37-6.476-6.591.974.338 1.997.529 3.026.561a.96.96 0 0 0 .983-.694 1 1 0 0 0-.396-1.137 8.253 8.253 0 0 1-3.164-9.674 27.28 27.28 0 0 0 18.723 8.826 1 1 0 0 0 1.023-1.225 8.204 8.204 0 0 1 1.576-6.994 8.176 8.176 0 0 1 6.44-3.111c2.266 0 4.455.947 6.005 2.599.236.251.583.361.923.297a19.462 19.462 0 0 0 3.374-.988 8.298 8.298 0 0 1-2.278 2.016 1.002 1.002 0 0 0-.432 1.181c.153.447.603.725 1.065.669.753-.09 1.497-.223 2.229-.398-.689.7-1.437 1.34-2.238 1.918a1.001 1.001 0 0 0-.414.856c.308 6.836-2.363 13.904-7.145 18.905-3.271 3.421-9.063 7.5-18.085 7.5-3.494 0-6.92-.721-10.087-2.106a19.647 19.647 0 0 0 10.223-4.074z" fill="#ffffff" class="fill-000000"></path></svg>